<?xml version="1.0" encoding="utf-8"?>
<!-- Generator: Adobe Illustrator 26.0.2, SVG Export Plug-In . SVG Version: 6.00 Build 0)  -->
<svg version="1.1" id="Livello_1" xmlns="http://www.w3.org/2000/svg" xmlns:xlink="http://www.w3.org/1999/xlink" x="0px" y="0px"
	 viewBox="0 0 360.61 362.53" style="enable-background:new 0 0 360.61 362.53;" xml:space="preserve">
<style type="text/css">
	.st0{fill:#050504;}
	.st1{fill:#E2E8E7;}
	.st2{fill:#13C0AB;}
	.st3{fill:#14C0AB;}
	.st4{fill:#FCA024;}
	.st5{fill:#FB9F25;}
	.st6{fill:#13BCA8;}
	.st7{fill:#FA9E26;}
	.st8{fill:#F2942B;}
	.st9{fill:#040908;}
	.st10{fill:#F1A028;}
</style>
<path class="st0" d="M0.7,54.17c3.77-8.24,10.09-10.45,18.89-9.26c13.2,1.79,26.53,2.65,39.81,3.91c5.33,0.5,9.07,3.26,11.12,8.15
	c2.13,5.08,1.25,9.84-2.4,13.88c-1.3,1.44-1.47,2.47-0.71,4.16c3.43,7.59,6.78,15.21,10.05,22.87c0.74,1.73,1.59,2.42,3.58,2.36
	c15.7-0.52,31.4-0.97,47.11-1.26c2.88-0.05,3.46-0.82,3.2-3.65c-0.83-9.18-1.36-18.4-1.88-27.61c-0.32-5.74,1.99-8.56,7.64-9.57
	c3.31-0.59,6.63-1.19,9.97-1.51c2.13-0.21,2.48-0.8,2.15-2.98c-2.55-17.22,2.47-31.92,15.97-43.04
	c13.25-10.91,28.46-13.47,44.54-7.43c16.2,6.09,25.83,18.1,28.84,35.18c0.49,2.78,0.88,3.91,4.26,3.35
	c5.13-0.84,10.36-3.12,15.71-0.36c0.84,0.43,2.36-0.48,3.57-0.74c19.45-4.29,38.62,8.13,42.28,27.62c0.58,3.06,1.81,3.66,4.42,2.95
	c0.36-0.1,0.73-0.18,1.1-0.24c8.91-1.55,10.72-0.4,12.9,8.27c0.94,3.74,1.92,7.47,2.69,11.25c0.47,2.31,1.35,3.23,3.96,3.05
	c5.96-0.41,11.96-0.45,17.94-0.49c7.87-0.06,13.18,5.15,13.19,13.03c0.04,29.43,0.05,58.85-0.01,88.28
	c-0.02,8.56-5.56,14.8-14.09,16.21c-11.17,1.84-22.35,3.66-33.68,5.51c0.48,1.48,1.07,2.84,1.37,4.27
	c1.56,7.57-2.94,14.19-10.86,15.5c-29.35,4.87-58.73,9.62-88.09,14.42c-10.69,1.75-21.4,3.4-32.06,5.32
	c-6.54,1.18-12.27,4.25-16.73,9.2c-5.57,6.18-9.71,13.41-14.9,20.62c1.93,0,3.25,0,4.57,0c55.37,0,110.73,0,166.1,0
	c7.6,0,12.62,3.8,13.86,10.4c1.42,7.59-4.04,14.64-11.8,14.99c-4.1,0.19-8.22,0.03-13.06,0.03c6.65,6.97,10.23,14.78,9.61,24.01
	c-0.62,9.21-4.75,16.69-12.24,22.13c-11.87,8.62-28.48,7.09-38.53-3.43c-11.28-11.8-10.98-27.33,0.96-42.49c-29.06,0-58,0-87.07,0
	c12.32,16.93,11.96,32.87-0.86,44.09c-11.53,10.09-28.78,9.84-39.81-0.58c-12.32-11.64-12.4-27.76,0.07-43.72
	c-2.83,0-5.4,0.07-7.97-0.01c-13.67-0.46-21.64-15.06-14.15-26.43c7.39-11.23,15.28-22.13,22.99-33.15c2.2-3.15,5.14-5.65,8.18-8.69
	c-4.15-0.38-7.84-0.4-11.37-1.69c-8.1-2.97-13.43-8.64-16.83-16.45c-21.17-48.65-42.4-97.28-63.53-145.95
	c-1.02-2.34-2.15-3.24-4.8-3.45c-13.79-1.1-27.54-2.65-41.33-3.75C7.9,70.71,3.53,67.44,0.7,61.66C-0.13,59.22-0.33,56.74,0.7,54.17
	z M138.74,97.87c0.4,0.31,0.8,0.62,1.19,0.93c3.46,0.29,6.92,0.78,10.34-0.29c9.66-0.76,19.34-0.25,29.02-0.68
	c11.89-0.52,23.82-1.11,35.75-1.02c4.92,0.04,4.92,0.01,4.89-4.86c-0.03-4.85,2.09-7.27,6.85-7.85c1.96-0.24,3.92-0.47,5.86-0.8
	c1.69-0.28,2.2-1.07,2.13-3.04c-0.12-3.29,0.36-6.99,0.01-9.4c0-5.24-0.51-10.48-1.32-16.54c-0.27-2.05-0.96-3.66-3.43-3.09
	c-4.66,1.07-9.41,1.59-14.09,2.43c-8.67,1.55-17.43,2.45-26.08,4.14c-9.97,1.95-20.09,3.11-30.16,4.52
	c-1.66,0.23-2.01,0.66-1.61,2.36c0.67,2.86,1.22,5.76,1.29,8.75c0.06,2.55-0.38,4.61-3.38,4.64c-2.8,0.03-3.68-2.16-4.08-4.42
	c-0.41-2.29-0.43-4.65-0.86-6.94c-0.31-1.61-0.49-3.38-3.28-2.37c-2.36,0.85-5.06,0.98-7.61,0.99c-2.67,0.01-3.48,1.05-3.29,3.6
	c0.66,9.2,1.19,18.41,1.78,27.62C138.27,97.02,138.19,97.47,138.74,97.87z M229.45,303.66c30.31,0,60.61,0,90.92-0.01
	c1.49,0,3.01,0.03,4.47-0.24c2.83-0.51,4.31-2.4,4.31-5.23c0-2.88-1.7-4.62-4.42-5.22c-1.19-0.26-2.48-0.09-3.73-0.09
	c-57.62,0-115.24,0-172.85,0c-1.12,0-2.25,0.06-3.37-0.03c-3.37-0.25-4.98-2.94-3.08-5.69c6-8.7,11.42-17.84,18.17-25.98
	c7.48-9.03,17.76-12.34,29.06-14.12c37.54-5.92,75.01-12.28,112.5-18.48c4.08-0.67,6.36-3.11,5.87-6.27
	c-0.52-3.37-3.01-4.92-7.4-4.22c-12.64,1.99-25.26,4.09-37.89,6.17c-25.37,4.17-50.7,8.62-76.13,12.42
	c-14.71,2.2-27.23,7.9-36.16,19.94c-7.63,10.28-14.68,20.99-21.96,31.54c-1.45,2.1-2.16,4.42-1.69,7.04
	c1.05,5.79,4.77,8.46,12.09,8.46C168.59,303.67,199.02,303.66,229.45,303.66z M160.89,233.57c-2.01-5.73-2.01-5.73-7.7-5.09
	c-8.02,0.89-13.61-3.66-14.17-11.62c-0.53-7.45-0.85-14.92-1.54-22.36c-0.59-6.32,0.61-13.09-1.79-18.89
	c-9.24-22.37-19.14-44.47-28.76-66.68c-0.56-1.3-1.26-1.89-2.77-1.85c-6.6,0.2-13.2,0.33-19.8,0.36c-2.19,0.01-2.56,0.6-1.64,2.61
	c2.42,5.31,4.67,10.7,6.99,16.05c13.76,31.79,27.57,63.55,41.26,95.37c3.32,7.73,8.75,12.58,17.18,13.65
	C152.41,235.67,156.52,234.33,160.89,233.57z M194,7.4c-2.35,0.24-4.74,0.29-7.04,0.76c-20.91,4.3-33.51,22.54-30.6,43.97
	c0.38,2.81,1.59,3.06,3.94,2.66c7.61-1.29,15.24-2.43,22.87-3.63c15.5-2.43,30.99-4.88,46.5-7.27c1.54-0.24,2.39-0.39,2.18-2.4
	C229.89,22.4,213.41,7.56,194,7.4z M157.32,105.82c-4.23,0-7.22,0.06-10.21-0.02c-2.37-0.06-2.7,0.72-1.77,2.85
	c14.85,34.03,29.71,68.07,44.36,102.19c1.49,3.47,3.55,3.88,6.58,3.35c4.12-0.72,8.22-1.81,12.37-2.01
	c3.65-0.17,3.48-1.54,2.33-4.08c-3.99-8.81-8.02-17.59-11.87-26.46c-9.59-22.14-19.31-44.22-28.49-66.53
	C167.74,108.11,164.72,103.04,157.32,105.82z M234.56,102.83c3.67,8.45,6.87,15.84,10.08,23.22c10.46,24.06,20.95,48.11,31.38,72.18
	c0.85,1.96,1.47,3.38,4.23,2.77c4.85-1.06,9.8-1.81,14.75-2.3c3.05-0.3,3.1-1.3,2.01-3.74c-4.56-10.22-8.97-20.5-13.43-30.76
	c-8.52-19.61-17.03-39.23-25.55-58.84c-0.59-1.35-1.01-2.63-3.07-2.58C248.4,102.92,241.84,102.83,234.56,102.83z M326.8,193.79
	c-0.25-0.84-0.39-1.57-0.68-2.23c-12.69-29.16-25.41-58.31-38.06-87.49c-0.72-1.66-1.7-2.1-3.39-2.01
	c-5.47,0.3-10.95,0.64-16.42,0.63c-2.95-0.01-2.97,0.88-1.93,3.19c4.56,10.21,8.99,20.48,13.46,30.73
	c8.46,19.36,16.92,38.71,25.37,58.07c0.53,1.21,0.68,2.56,2.73,2.18C314.1,195.73,320.35,194.82,326.8,193.79z M174.46,105.07
	c0.45,1.05,0.78,1.83,1.12,2.6c4.53,10.35,9.09,20.69,13.6,31.04c9.91,22.74,19.89,45.45,29.58,68.29c1.57,3.69,4.04,3.03,6.57,2.67
	c3.17-0.45,2.16-3.15,2.04-5.05c-0.63-10.06-1.47-20.12-2.06-30.18c-0.16-2.75-0.69-5.32-1.79-7.82
	c-3.24-7.39-6.42-14.81-9.65-22.21c-5.44-12.46-10.9-24.91-16.35-37.36c-0.51-1.15-1.02-2.05-2.65-2.02
	C188.17,105.13,181.47,105.07,174.46,105.07z M140.99,117.7c-0.43,0.11-0.86,0.23-1.29,0.34c1.34,6.2,1.23,12.52,1.5,18.77
	c0.44,10.27,1.75,20.48,1.84,30.79c0.02,2.81,0.11,5.88,1.33,8.67c5.66,12.95,11.44,25.86,16.81,38.93
	c1.51,3.67,3.64,4.05,6.88,3.42c4.1-0.79,8.22-1.77,12.37-1.98c3.52-0.18,3.22-1.49,2.17-3.88c-6.11-13.92-12.17-27.87-18.26-41.8
	c-5.84-13.37-11.7-26.73-17.56-40.09C144.85,126.49,142.92,122.1,140.99,117.7z M295.03,101.27c0.87,2.13,1.3,3.26,1.79,4.37
	c4.02,9.24,8.04,18.48,12.07,27.72c8.15,18.7,16.28,37.41,24.46,56.1c0.46,1.05,0.46,2.52,2.05,2.82c5.1,0.95,7.54-1.63,6.29-6.65
	c-3.18-12.79-6.33-25.59-9.55-38.38c-3.71-14.7-6.54-29.67-13.71-43.28c-0.66-1.25-0.82-2.79-2.96-2.75
	C308.9,101.36,302.31,101.27,295.03,101.27z M229.55,109.96c-0.25,0.06-0.5,0.12-0.75,0.18c1.17,17.9,2.31,35.81,3.52,53.71
	c0.14,2.09,0.16,4.17,1.06,6.21c4.88,11.03,9.67,22.11,14.41,33.2c0.79,1.84,1.6,2.7,3.85,2.26c4.88-0.95,9.82-1.76,14.77-2.18
	c3.26-0.27,3.25-1.34,2.13-3.9c-7.52-17.07-14.92-34.2-22.36-51.3C240.63,135.41,235.09,122.69,229.55,109.96z M269.18,332.92
	c-0.01,12.75,9.74,22.67,22.28,22.67c12.32,0,22.3-9.91,22.43-22.27c0.13-12.51-9.83-22.58-22.39-22.64
	C279.16,310.63,269.19,320.56,269.18,332.92z M163.74,310.83c-12.58-0.01-22.31,9.58-22.36,22.05c-0.05,12.72,9.71,22.68,22.24,22.7
	c12.37,0.02,22.57-10.21,22.51-22.57C186.06,320.6,176.21,310.84,163.74,310.83z M352.58,163.69c0.21-0.05,0.41-0.1,0.62-0.15
	c0-19.48,0.05-38.97-0.05-58.45c-0.02-3.13-2.15-4.64-5.22-4.59c-5.6,0.1-11.2,0.37-16.79,0.4c-2.3,0.01-2.44,0.77-2.06,2.87
	c2.01,10.98,6.47,21.06,10.97,31.14C344.32,144.47,348.42,154.1,352.58,163.69z M281.25,95.45c0-0.55,0-1.09,0-1.64
	c11.46,0,22.93-0.03,34.39,0.03c2.25,0.01,3.52-0.15,2.54-3.03c-1.11-3.28-1.81-6.72-2.44-10.14c-0.46-2.47-1.76-2.8-3.93-2.46
	c-5.26,0.81-5.26,0.74-4.48,5.95c0.15,0.98,0.27,1.98,0.26,2.98c-0.02,2.17-1.08,3.56-3.3,3.78c-2.19,0.22-3.61-0.89-4.1-2.98
	c-0.4-1.69-0.73-3.43-0.82-5.16c-0.1-1.94-0.74-2.57-2.77-2.25c-16.47,2.64-32.96,5.16-49.43,7.78c-1.42,0.23-3.98-0.46-3.11,2.64
	c0.6,2.12-0.19,4.78,3.94,4.63C259.07,95.2,270.16,95.45,281.25,95.45z M268.77,47.35c-0.57,0.05-2.18,0.17-3.79,0.3
	c-2.47,0.21-3.18,1.19-2.45,3.81c2.16,7.78,4.01,15.66,5.95,23.5c0.3,1.2,0.2,2.54,2.16,2.22c8.35-1.38,16.71-2.73,25.08-3.99
	c1.85-0.28,2.04-0.94,1.71-2.69C294.84,56.85,283.56,47.32,268.77,47.35z M14.77,51.94c-3.61-0.07-6.26,2.05-6.57,5.26
	c-0.32,3.28,1.94,6.03,5.84,6.42c14.37,1.43,28.75,2.74,43.13,3.97c3.71,0.32,6.25-1.9,6.53-5.17c0.29-3.39-1.6-5.81-5.46-6.21
	C43.76,54.7,29.26,53.36,14.77,51.94z M114,106.37c6.91,15.86,13.5,30.98,20.09,46.1c-0.26-14.9-1.27-29.62-2.2-44.34
	c-0.12-1.87-1.15-1.79-2.48-1.78C124.57,106.4,119.72,106.37,114,106.37z M254.77,52.07c-0.38-0.24-0.76-0.49-1.14-0.73
	c-1.94,2.24-3.96,4.43-5.81,6.74c-4.45,5.59-6.48,12-6.17,19.15c0.13,2.9,1.21,4.53,4.51,3.88c4.33-0.85,8.69-1.61,13.07-2.17
	c2-0.26,2.14-1.11,1.72-2.72C258.87,68.19,256.83,60.13,254.77,52.07z M204.6,104.32c6.01,13.84,11.74,27.01,17.46,40.17
	c1.16-3.53,0.48-6.74,0.22-10c-0.74-9.31-1.08-18.66-1.5-27.99c-0.07-1.52-0.41-2.24-2.11-2.21
	C214.2,104.38,209.72,104.32,204.6,104.32z M346.05,167.76c-0.29,0.09-0.59,0.18-0.88,0.27c1.45,5.82,2.93,11.63,4.33,17.46
	c1.78,7.45-1.43,12.3-8.96,13.79c-0.82,0.16-2.44-0.46-2.2,1.12c0.18,1.23,0.5,2.84,1.88,3.44c3.97,1.73,11.94-2.64,12.88-7.16
	C355.33,185.89,350.82,176.78,346.05,167.76z M166.6,226.25c2.04,6.07,2.03,6.05,7.72,5.04c4.03-0.72,8.09-1.31,12.11-2.07
	c1.04-0.2,3.19,0.23,2.68-1.48c-0.51-1.68-0.39-4.81-3.4-4.44C179.34,224.09,173.01,225.24,166.6,226.25z M194.38,221.89
	c2.26,1.94,1.14,5.63,4.46,5.22c6.38-0.79,12.71-2,19.61-3.13c-1.97-1.88-0.65-5.68-4.4-5.16
	C207.79,219.67,201.55,220.76,194.38,221.89z M223.75,217.43c1.54,5.36,1.56,5.48,4.45,5.02c6.01-0.94,12-2.01,18.01-3.04
	c-1.35-5.2-1.44-5.38-4.06-4.98C236.01,215.39,229.89,216.43,223.75,217.43z M251.75,213.05c1.83,1.73,0.67,5.44,4.42,4.87
	c5.64-0.86,11.26-1.86,16.88-2.83c0.64-0.11,1.51,0.19,1.69-0.92c0.33-2.06-2.12-4.52-4.27-4.17
	C264.48,210.95,258.49,211.94,251.75,213.05z M280.92,208.55c0.55,3.9,2.04,5.57,6.21,4.39c4.27-1.21,8.78-1.51,13.17-2.34
	c1.06-0.2,3.31,0.6,2.64-1.8c-0.47-1.69-0.69-3.87-3.83-3.21C293.18,206.84,287.13,207.57,280.92,208.55z M309.03,204.05
	c1.49,1.76,0.68,4.83,3.76,4.38c6.35-0.92,12.68-2.04,19.23-3.11c-1.16-2.22-0.81-5.06-4.38-4.36
	C321.66,202.11,315.62,202.97,309.03,204.05z M146.11,199.3c-0.45,0.74-0.94,1.17-0.91,1.55c0.46,5.73,0.91,11.47,1.55,17.19
	c0.15,1.37,1.39,2.55,2.68,2.8c1.61,0.31,3.59,0.92,4.91-0.52c1.17-1.28-0.36-2.45-0.83-3.59
	C151.15,211.02,148.69,205.35,146.11,199.3z M234.72,191.91c-0.23,0.02-0.47,0.05-0.7,0.07c0.3,4.32,0.6,8.64,0.88,12.96
	c0.08,1.26,0.67,2.19,1.85,2.48c1.35,0.34,2.86,0.22,3.87-0.71c0.92-0.85-0.21-1.84-0.56-2.66
	C238.35,199.99,236.51,195.96,234.72,191.91z M232.55,96.13c1.33-0.68,3.79,1.22,4.51-1.36c0.8-2.88-1.04-4.57-4.05-4.12
	c-1.35,0.2-2.69,0.42-4.05,0.58c-1.89,0.22-1.48,1.56-1.43,2.78c0.05,1.22,0.25,2.24,1.84,2.14
	C230.36,96.08,231.36,96.13,232.55,96.13z"/>
<path class="st1" d="M229.45,303.66c-30.43,0-60.86,0.01-91.29-0.01c-7.32,0-11.04-2.67-12.09-8.46c-0.48-2.62,0.24-4.94,1.69-7.04
	c7.27-10.54,14.33-21.25,21.96-31.54c8.94-12.04,21.45-17.74,36.16-19.94c25.43-3.8,50.76-8.25,76.13-12.42
	c12.63-2.07,25.25-4.17,37.89-6.17c4.39-0.69,6.87,0.85,7.4,4.22c0.49,3.16-1.79,5.59-5.87,6.27c-37.5,6.19-74.96,12.55-112.5,18.48
	c-11.3,1.78-21.58,5.09-29.06,14.12c-6.75,8.15-12.17,17.28-18.17,25.98c-1.89,2.74-0.28,5.43,3.08,5.69
	c1.12,0.08,2.24,0.03,3.37,0.03c57.62,0,115.24,0,172.85,0c1.25,0,2.54-0.17,3.73,0.09c2.72,0.6,4.42,2.34,4.42,5.22
	c0,2.83-1.48,4.71-4.31,5.23c-1.46,0.26-2.98,0.23-4.47,0.24C290.06,303.67,259.76,303.66,229.45,303.66z"/>
<path class="st2" d="M138.65,96.55c-0.58-9.21-1.12-18.42-1.78-27.62c-0.18-2.55,0.62-3.59,3.29-3.6c2.55-0.01,5.26-0.14,7.61-0.99
	c2.79-1.01,2.97,0.76,3.28,2.37c0.43,2.28,0.45,4.65,0.86,6.94c0.41,2.26,1.28,4.45,4.08,4.42c3-0.03,3.44-2.09,3.38-4.64
	c-0.07-2.99-0.62-5.89-1.29-8.75c-0.4-1.7-0.05-2.12,1.61-2.36c10.07-1.41,20.19-2.57,30.16-4.52c8.66-1.69,17.41-2.59,26.08-4.14
	c4.69-0.84,9.43-1.36,14.09-2.43c2.47-0.57,3.16,1.04,3.43,3.09c0.81,6.06,1.2,11.98,1.45,18.97c-0.07,2.27,0.17,3.92-0.14,6.97
	c-0.26,2.57-0.44,2.75-2.13,3.04c-1.94,0.33-3.9,0.56-5.86,0.8c-4.76,0.58-6.88,3-6.85,7.85c0.03,4.87,0.03,4.9-4.89,4.86
	c-11.93-0.09-23.86,0.5-35.75,1.02c-9.68,0.43-19.37-0.09-29.02,0.68c-3.45-0.12-6.91-0.25-10.35,0.29c-0.4-0.31-0.8-0.62-1.19-0.92
	C138.72,97.44,138.68,96.99,138.65,96.55z"/>
<path class="st3" d="M157.32,105.82c7.4-2.78,10.42,2.29,13.31,9.3c9.18,22.31,18.9,44.39,28.49,66.53
	c3.84,8.87,7.88,17.66,11.87,26.46c1.15,2.53,1.32,3.9-2.33,4.08c-4.14,0.2-8.25,1.29-12.37,2.01c-3.04,0.53-5.09,0.12-6.58-3.35
	c-14.65-34.12-29.51-68.16-44.36-102.19c-0.93-2.14-0.6-2.92,1.77-2.85C150.1,105.88,153.09,105.82,157.32,105.82z"/>
<path class="st4" d="M234.56,102.83c7.28,0,13.84,0.09,20.4-0.06c2.06-0.05,2.48,1.23,3.07,2.58c8.52,19.61,17.03,39.23,25.55,58.84
	c4.46,10.26,8.87,20.55,13.43,30.76c1.09,2.44,1.04,3.44-2.01,3.74c-4.95,0.49-9.89,1.24-14.75,2.3c-2.77,0.61-3.39-0.81-4.23-2.77
	c-10.43-24.07-20.91-48.12-31.38-72.18C241.43,118.67,238.23,111.28,234.56,102.83z"/>
<path class="st4" d="M326.8,193.79c-6.45,1.03-12.7,1.94-18.92,3.07c-2.05,0.37-2.2-0.97-2.73-2.18
	c-8.45-19.36-16.91-38.71-25.37-58.07c-4.48-10.25-8.91-20.52-13.46-30.73c-1.03-2.31-1.02-3.19,1.93-3.19
	c5.47,0.01,10.95-0.32,16.42-0.63c1.69-0.09,2.67,0.34,3.39,2.01c12.65,29.18,25.37,58.33,38.06,87.49
	C326.41,192.22,326.55,192.95,326.8,193.79z"/>
<path class="st3" d="M174.46,105.07c7.01,0,13.71,0.06,20.4-0.05c1.63-0.03,2.14,0.87,2.65,2.02c5.45,12.45,10.91,24.9,16.35,37.36
	c3.23,7.4,6.42,14.81,9.65,22.21c1.1,2.5,1.63,5.07,1.79,7.82c0.59,10.07,1.43,20.12,2.06,30.18c0.12,1.9,1.14,4.6-2.04,5.05
	c-2.53,0.36-5,1.02-6.57-2.67c-9.69-22.83-19.68-45.54-29.58-68.29c-4.51-10.36-9.07-20.7-13.6-31.04
	C175.24,106.9,174.91,106.12,174.46,105.07z"/>
<path class="st3" d="M140.99,117.7c1.93,4.4,3.86,8.79,5.79,13.19c5.85,13.36,11.71,26.72,17.56,40.09
	c6.09,13.93,12.15,27.88,18.26,41.8c1.05,2.39,1.34,3.71-2.17,3.88c-4.15,0.21-8.26,1.19-12.37,1.98c-3.24,0.62-5.38,0.24-6.88-3.42
	c-5.37-13.07-11.15-25.98-16.81-38.93c-1.22-2.79-1.31-5.86-1.33-8.67c-0.08-10.3-1.4-20.51-1.84-30.79
	c-0.27-6.25-0.16-12.57-1.5-18.77C140.13,117.93,140.56,117.81,140.99,117.7z"/>
<path class="st5" d="M295.03,101.27c7.28,0,13.86,0.09,20.44-0.05c2.14-0.04,2.3,1.5,2.96,2.75c7.16,13.6,10,28.58,13.71,43.28
	c3.23,12.78,6.37,25.58,9.55,38.38c1.25,5.02-1.2,7.6-6.29,6.65c-1.59-0.3-1.59-1.77-2.05-2.82c-8.18-18.69-16.32-37.39-24.46-56.1
	c-4.02-9.24-8.05-18.48-12.07-27.72C296.34,104.53,295.9,103.4,295.03,101.27z"/>
<path class="st5" d="M229.55,109.96c5.54,12.73,11.09,25.45,16.63,38.18c7.44,17.1,14.84,34.23,22.36,51.3
	c1.12,2.55,1.13,3.62-2.13,3.9c-4.95,0.41-9.89,1.23-14.77,2.18c-2.25,0.44-3.06-0.42-3.85-2.26c-4.74-11.09-9.53-22.17-14.41-33.2
	c-0.9-2.04-0.92-4.12-1.06-6.21c-1.21-17.9-2.35-35.8-3.52-53.71C229.05,110.08,229.3,110.02,229.55,109.96z"/>
<path class="st6" d="M269.18,332.92c0.01-12.36,9.98-22.29,22.32-22.24c12.56,0.06,22.52,10.13,22.39,22.64
	c-0.13,12.36-10.11,22.26-22.43,22.27C278.92,355.59,269.17,345.67,269.18,332.92z M291.34,320.44
	c-6.93,0.05-12.52,5.71-12.52,12.66c0.01,7.19,5.69,12.85,12.81,12.76c6.8-0.09,12.64-5.92,12.69-12.69
	C304.38,326.29,298.36,320.39,291.34,320.44z"/>
<path class="st6" d="M163.74,310.83c12.47,0.01,22.33,9.77,22.39,22.17c0.06,12.37-10.13,22.59-22.51,22.57
	c-12.52-0.02-22.28-9.98-22.24-22.7C141.43,320.42,151.16,310.82,163.74,310.83z M163.79,345.87c7-0.04,12.74-5.92,12.64-12.95
	c-0.1-7.08-5.84-12.58-13.04-12.48c-6.96,0.09-12.44,5.72-12.39,12.71C151.04,340.33,156.66,345.92,163.79,345.87z"/>
<path class="st7" d="M281.25,95.45c-11.09,0-22.19-0.25-33.26,0.13c-4.13,0.14-3.34-2.52-3.94-4.63c-0.87-3.1,1.69-2.41,3.11-2.64
	c16.47-2.63,32.96-5.15,49.43-7.78c2.03-0.33,2.67,0.31,2.77,2.25c0.09,1.73,0.41,3.47,0.82,5.16c0.5,2.09,1.91,3.19,4.1,2.98
	c2.22-0.22,3.29-1.6,3.3-3.78c0.01-0.99-0.11-1.99-0.26-2.98c-0.78-5.21-0.78-5.14,4.48-5.95c2.17-0.33,3.48-0.01,3.93,2.46
	c0.63,3.42,1.33,6.86,2.44,10.14c0.98,2.88-0.28,3.05-2.54,3.03c-11.46-0.06-22.92-0.03-34.39-0.03
	C281.25,94.36,281.25,94.91,281.25,95.45z"/>
<path class="st7" d="M14.77,51.95c14.49,1.41,28.99,2.76,43.47,4.27c3.86,0.4,5.75,2.82,5.46,6.21c-0.28,3.27-2.82,5.49-6.53,5.17
	c-14.38-1.24-28.76-2.55-43.13-3.97c-3.9-0.39-6.16-3.14-5.84-6.42C8.51,53.99,11.16,51.87,14.77,51.95z"/>
<path class="st2" d="M254.77,52.07c2.06,8.05,4.1,16.11,6.18,24.16c0.42,1.61,0.28,2.46-1.72,2.72c-4.38,0.56-8.73,1.32-13.07,2.17
	c-3.31,0.65-4.38-0.98-4.51-3.88c-0.31-7.15,1.71-13.56,6.17-19.15c1.85-2.32,3.87-4.5,5.81-6.74
	C254.01,51.58,254.39,51.83,254.77,52.07z"/>
<path class="st3" d="M204.6,104.32c5.12,0,9.6,0.06,14.07-0.03c1.69-0.03,2.04,0.69,2.11,2.21c0.42,9.34,0.76,18.68,1.5,27.99
	c0.26,3.26,0.94,6.47-0.22,10C216.33,131.33,210.61,118.16,204.6,104.32z"/>
<path class="st3" d="M146.11,199.3c2.58,6.05,5.04,11.72,7.41,17.42c0.47,1.14,2,2.31,0.83,3.59c-1.32,1.44-3.31,0.83-4.91,0.52
	c-1.29-0.24-2.53-1.43-2.68-2.8c-0.64-5.72-1.09-11.45-1.55-17.19C145.17,200.47,145.66,200.04,146.11,199.3z"/>
<path class="st8" d="M234.72,191.91c1.79,4.05,3.63,8.07,5.34,12.15c0.35,0.82,1.48,1.81,0.56,2.66c-1.02,0.93-2.52,1.04-3.87,0.71
	c-1.19-0.3-1.77-1.22-1.85-2.48c-0.27-4.32-0.58-8.64-0.88-12.96C234.25,191.96,234.48,191.94,234.72,191.91z"/>
<path class="st8" d="M232.55,96.13c-1.19,0-2.19-0.05-3.18,0.01c-1.6,0.1-1.79-0.92-1.84-2.14c-0.05-1.21-0.46-2.56,1.43-2.78
	c1.35-0.16,2.7-0.37,4.05-0.58c3.01-0.45,4.85,1.24,4.05,4.12C236.34,97.36,233.89,95.45,232.55,96.13z"/>
<path class="st9" d="M139.94,98.8c3.44-0.54,6.89-0.41,10.35-0.29C146.86,99.58,143.4,99.09,139.94,98.8z"/>
<path class="st9" d="M138.65,96.55c0.03,0.44,0.06,0.89,0.1,1.33C138.19,97.47,138.27,97.02,138.65,96.55z"/>
<path class="st9" d="M291.34,320.44c7.02-0.05,13.04,5.85,12.99,12.72c-0.05,6.77-5.89,12.6-12.69,12.69
	c-7.12,0.09-12.8-5.57-12.81-12.76C278.82,326.15,284.41,320.49,291.34,320.44z M291.42,327.35c-3.48,0.03-5.72,2.42-5.61,6.02
	c0.1,3.37,2.4,5.59,5.73,5.54c3.44-0.05,5.75-2.51,5.67-6.04C297.15,329.64,294.72,327.33,291.42,327.35z"/>
<path class="st9" d="M163.79,345.87c-7.12,0.04-12.74-5.55-12.8-12.73c-0.05-6.99,5.43-12.61,12.39-12.71
	c7.2-0.1,12.95,5.4,13.04,12.48C176.52,339.95,170.79,345.83,163.79,345.87z M163.62,327.36c-3.27,0.02-5.64,2.35-5.71,5.61
	c-0.08,3.31,2.53,5.96,5.82,5.95c3.17-0.02,5.67-2.47,5.73-5.64C169.53,329.97,166.93,327.34,163.62,327.36z"/>
<path class="st10" d="M291.42,327.35c3.29-0.03,5.72,2.29,5.79,5.53c0.08,3.53-2.23,5.99-5.67,6.04c-3.33,0.05-5.63-2.18-5.73-5.54
	C285.71,329.78,287.94,327.38,291.42,327.35z"/>
<path class="st10" d="M163.62,327.36c3.31-0.02,5.9,2.61,5.83,5.92c-0.07,3.17-2.56,5.62-5.73,5.64c-3.29,0.02-5.89-2.64-5.82-5.95
	C157.98,329.71,160.35,327.38,163.62,327.36z"/>
</svg>
